# xmcd
#
# Track frame offsets: 
#        183
#        10055
#        21565
#        30908
#        40530
#        51608
#        69505
#        84505
#        100555
#        112245
#        133185
#
# Disc length: 2025 seconds
#
# Revision: 3
# Processed by: cddbd v1.5.2PL0 Copyright (c) Steve Scherf et al.
# Submitted via: ExactAudioCopyFreeDBPlugin 1.0
#
DISCID=8c07e70b
DTITLE=Taj Mahal - Mule Bone
DYEAR=1991
DGENRE=Blues
TTITLE0=Jubilee
TTITLE1=Graveyard Mule
TTITLE2=Me And The Mule
TTITLE3=Song For A Banjo Dance
TTITLE4=But I Rode Some
TTITLE5=Hey Hey Blues
TTITLE6=Shake That Thing
TTITLE7=The Intermission Blues
TTITLE8=Crossing
TTITLE9=Bound No'th Blues
TTITLE10=Finale
EXTD=Lyrics by Langston Hughes\n
EXTT0=
EXTT1=
EXTT2=
EXTT3=
EXTT4=
EXTT5=
EXTT6=
EXTT7=
EXTT8=
EXTT9=
EXTT10=
PLAYORDER=
